<?xml version="1.0" standalone="no"?>
<!DOCTYPE svg PUBLIC "-//W3C//DTD SVG 20010904//EN"
 "http://www.w3.org/TR/2001/REC-SVG-20010904/DTD/svg10.dtd">
<svg version="1.0" xmlns="http://www.w3.org/2000/svg"
 width="512.000000pt" height="512.000000pt" viewBox="0 0 512.000000 512.000000"
 preserveAspectRatio="xMidYMid meet">
<metadata>
Created by potrace 1.14, written by Peter Selinger 2001-2017
</metadata>
<g transform="translate(0.000000,512.000000) scale(0.100000,-0.100000)"
fill="#000000" stroke="none">
<path d="M0 3542 l0 -1579 998 238 c548 131 1008 241 1021 244 l24 6 -7 -830
-7 -831 81 0 80 0 0 380 c0 242 4 398 11 432 26 120 105 219 207 259 81 32
216 32 290 -1 66 -29 134 -103 159 -173 16 -47 18 -89 16 -475 l-2 -422 64 0
c35 0 70 -3 79 -6 14 -6 16 37 16 433 0 477 -3 505 -57 606 -77 140 -253 220
-437 197 -152 -19 -243 -78 -333 -216 -10 -15 -12 49 -11 332 l2 350 1463 349
1463 349 0 968 0 968 -2560 0 -2560 0 0 -1578z m2320 818 l0 -150 120 0 120 0
0 -71 0 -72 -120 6 -120 5 -1 -386 c-2 -459 -2 -457 19 -502 23 -49 71 -70
155 -70 l67 0 0 -70 0 -70 -98 0 c-123 0 -183 17 -234 67 -67 65 -68 78 -68
585 l0 448 -90 0 -90 0 0 65 0 65 90 0 90 0 0 150 0 150 80 0 80 0 0 -150z
m-758 -149 c63 -20 153 -87 192 -144 74 -108 76 -122 76 -628 l0 -449 -80 0
-79 0 -3 443 -3 442 -28 57 c-36 74 -85 113 -171 140 -178 54 -355 -24 -427
-188 -29 -64 -38 -206 -39 -596 l0 -298 -81 0 -81 0 7 613 c4 336 9 613 10
615 2 2 35 0 74 -4 l71 -7 0 -101 0 -101 34 51 c52 78 114 122 216 156 44 14
78 17 165 14 61 -2 127 -9 147 -15z"/>
<path d="M1215 2020 c-272 -55 -435 -286 -435 -620 0 -357 176 -584 481 -623
223 -28 437 77 523 257 19 39 38 86 41 104 l7 33 -77 -3 -77 -3 -19 -51 c-28
-73 -79 -128 -157 -166 -63 -31 -73 -33 -172 -33 -94 1 -111 3 -161 28 -100
48 -181 156 -214 284 -20 75 -19 258 0 342 33 140 129 258 243 301 79 30 225
25 292 -10 94 -48 151 -113 180 -202 l12 -38 74 0 c41 0 74 4 74 9 0 24 -40
135 -63 173 -31 53 -106 125 -168 161 -93 55 -266 80 -384 57z"/>
<path d="M3653 2005 c-191 -42 -337 -190 -395 -402 -31 -114 -31 -317 1 -428
71 -250 238 -391 489 -411 217 -17 432 101 521 288 53 113 66 177 66 343 0
130 -3 160 -23 225 -48 153 -138 273 -249 333 -113 61 -275 81 -410 52z m299
-157 c102 -47 179 -148 213 -278 22 -84 22 -272 1 -353 -35 -129 -112 -232
-213 -283 -53 -26 -67 -29 -163 -29 -99 0 -109 2 -172 33 -148 73 -228 231
-228 452 0 242 97 411 271 474 70 26 218 17 291 -16z"/>
</g>
</svg>
